# xmcd CD database file
#
# Track frame offsets:
#	182
#	17612
#	38930
#	54337
#	67225
#	82132
#	101482
#	119810
#	140380
#	161235
#	170585
#	187162
#	199617
#	213182
#
# Disc length: 3173 seconds
#
# Revision: 0
# Processed by: cddbd v1.5.2PL0 Copyright (c) Steve Scherf et al.
# Submitted via: CDex 1.70beta2
#
DISCID=d20c630e
DTITLE=100 Folk Celsius - nem Csak felnoetteknek
DYEAR=1991
DGENRE=Country
TTITLE0=Angyalok és boszorkák
TTITLE1=California
TTITLE2=Késve jöttél
TTITLE3=Egy cowboy Rióban
TTITLE4=Csak az a fontos
TTITLE5=18 év felett
TTITLE6=Dalom a szél
TTITLE7=Vándormadár
TTITLE8=Vakrepülés
TTITLE9=Egyedül kettesben
TTITLE10=Vándor zsebretett kézzel
TTITLE11=Vízparti esték
TTITLE12=Az öreg cowboy dala
TTITLE13=Távolvagy tőlem
EXTD=YEAR: 1991
EXTT0=
EXTT1=
EXTT2=
EXTT3=
EXTT4=
EXTT5=
EXTT6=
EXTT7=
EXTT8=
EXTT9=
EXTT10=
EXTT11=
EXTT12=
EXTT13=
PLAYORDER=
